<svg width="26" height="28" viewBox="0 0 26 28" fill="none" xmlns="http://www.w3.org/2000/svg">
<path fill-rule="evenodd" clip-rule="evenodd" d="M6.9777 3.21367C3.02601 4.56302 1.26343 9.13854 2.58829 13.5035C3.26059 15.5589 4.35397 17.4062 5.79048 18.9219C7.76114 20.9518 9.92611 22.7381 12.2534 24.256L12.5177 24.4238C12.7708 24.5845 13.0875 24.5817 13.338 24.4165L13.5847 24.2539C15.9088 22.7381 18.0738 20.9518 20.0377 18.9289C21.481 17.4062 22.5743 15.5589 23.241 13.5213C24.5707 9.1412 22.8008 4.56351 18.8479 3.21373L18.562 3.12342C16.7496 2.59474 14.8237 2.85525 13.2002 3.83015L12.9116 4.01158L12.6281 3.83116C10.9156 2.80061 8.86905 2.56842 6.9777 3.21367ZM12.2424 5.54118L12.4541 5.70225C12.7333 5.91427 13.1099 5.91006 13.3847 5.69184C14.8162 4.55525 16.6688 4.22451 18.3659 4.80196C21.4286 5.84775 22.8224 9.45277 21.7479 12.9926C21.1652 14.7731 20.2005 16.403 18.9337 17.7396L18.3654 18.3122C16.8342 19.8213 15.1784 21.1875 13.4204 22.3913L12.9168 22.7272L13.0705 22.83C10.8495 21.3814 8.77579 19.6703 6.89451 17.7326C5.63443 16.403 4.66977 14.7731 4.08137 12.9748C3.01155 9.4494 4.3993 5.84693 7.46034 4.80169C9.07668 4.25027 10.8388 4.52366 12.2424 5.54118ZM17.081 7.40123C16.6668 7.26104 16.2239 7.50316 16.0916 7.94202C15.9593 8.38087 16.1878 8.85028 16.6019 8.99047C17.4159 9.26601 17.9961 10.043 18.0689 10.9596C18.1053 11.4186 18.486 11.7595 18.9192 11.7209C19.3524 11.6823 19.6741 11.2789 19.6376 10.8198C19.5118 9.23317 18.5032 7.88268 17.081 7.40123Z" fill="#293241"/>
</svg>
